<svg id="Group_284" data-name="Group 284" xmlns="http://www.w3.org/2000/svg" width="11.847" height="12.011" viewBox="0 0 11.847 12.011">
  <path id="Icon_ionic-ios-arrow-back" data-name="Icon ionic-ios-arrow-back" d="M16.047,12.2,11.5,7.657a.858.858,0,0,1,1.216-1.212l5.149,5.146a.857.857,0,0,1,.025,1.184l-5.171,5.181a.858.858,0,0,1-1.216-1.212Z" transform="translate(-11.251 -6.194)" fill="#ff005c"/>
  <path id="Icon_ionic-ios-arrow-back-2" data-name="Icon ionic-ios-arrow-back" d="M16.047,12.2,11.5,7.657a.858.858,0,0,1,1.216-1.212l5.149,5.146a.857.857,0,0,1,.025,1.184l-5.171,5.181a.858.858,0,0,1-1.216-1.212Z" transform="translate(-6.27 -6.194)" fill="#ff005c"/>
</svg>
