<svg width="170" height="43" viewBox="0 0 170 43" fill="none" xmlns="http://www.w3.org/2000/svg">
<path fill-rule="evenodd" clip-rule="evenodd" d="M62.6374 15.0493C61.745 14.3464 60.734 13.8375 59.6045 13.5089C58.4743 13.1643 57.3441 13 56.2139 13C55.2926 13 54.2816 13.1345 53.181 13.3736C52.066 13.6136 50.951 13.9574 49.836 14.3762C48.7209 14.7949 47.65 15.2732 46.6238 15.7966C45.6022 16.333 44.7424 16.8847 44.0299 17.4662C44.0246 17.47 44.0216 17.4761 44.0208 17.4823L41.7369 33.9717C41.7346 33.987 41.746 34 41.7612 34H45.9311C47.8983 34 49.5648 32.5436 49.8413 30.5852L51.2168 20.8199C51.2183 20.8122 51.2214 20.8061 51.2275 20.8023C51.5693 20.5784 52.0721 20.3118 52.72 20.0145C53.3891 19.7005 54.1327 19.5515 54.9652 19.5515C55.4855 19.5515 55.9017 19.6409 56.2139 19.8357C56.5413 20.0298 56.779 20.2697 56.9575 20.5685C57.1216 20.8825 57.2256 21.2119 57.2697 21.5702C57.3145 21.9301 57.3297 22.2885 57.3001 22.6324L55.6982 33.9717C55.6959 33.9862 55.7073 34 55.7225 34H59.8993C61.8703 34 63.539 32.539 63.8109 30.576L65.0612 21.5557C65.2541 20.0451 65.1348 18.7583 64.6745 17.6817C64.2135 16.6196 63.5291 15.737 62.6374 15.0493Z" fill="#DB305F"/>
<path fill-rule="evenodd" clip-rule="evenodd" d="M39.3028 15.7276C38.662 15.2637 37.8968 14.8223 37.0201 14.4148C36.1427 14.0074 35.187 13.668 34.1183 13.3958C33.0495 13.1477 31.9816 13 30.9129 13C28.7655 13 26.8532 13.351 25.189 14.019C23.5018 14.6862 22.0851 15.6255 20.8926 16.8022C19.7233 17.9797 18.8351 19.3937 18.2166 21.0011C17.6089 22.5968 17.3054 24.3278 17.3054 26.1725C17.3054 27.3267 17.4744 28.4246 17.7887 29.4884C18.1037 30.5638 18.5647 31.5032 19.1832 32.3064C19.7794 33.0981 20.5215 33.7553 21.3767 34.2532C22.231 34.7511 23.1983 35 24.2332 35C25.4702 35 26.6396 34.7511 27.7306 34.2532C27.7528 34.2416 27.7982 34.2191 27.832 34.2075C28.9368 33.6849 29.9333 33.1074 30.8215 32.4433C30.8391 32.4301 30.8629 32.4448 30.8599 32.4665L30.6132 34.2238C30.6117 34.2392 30.6232 34.2532 30.6386 34.2532H34.872C36.8511 34.2532 38.5383 32.7819 38.808 30.8128L40.718 17.062C40.7195 17.055 40.718 17.0488 40.7142 17.0434C40.4322 16.6275 39.962 16.2 39.3028 15.7276ZM31.7911 25.6815C31.7903 25.6846 31.7895 25.6877 31.788 25.69C31.6313 25.9939 31.4399 26.2761 31.1718 26.5915C30.9129 26.8969 30.6094 27.1915 30.2836 27.4404C29.9571 27.7118 29.586 27.9267 29.2149 28.0736C28.8438 28.2437 28.4505 28.3233 28.0679 28.3233C27.1236 28.3233 26.3922 28.0287 25.8859 27.4404C25.4141 26.8629 25.1552 26.048 25.1552 24.9958C25.1552 24.1129 25.2789 23.3436 25.5263 22.6648C25.7737 21.9968 26.111 21.4309 26.5497 21.0011C26.9884 20.5596 27.4832 20.2202 28.0563 19.9829C28.6303 19.7563 29.2265 19.6319 29.8557 19.6319C30.5648 19.6319 31.1265 19.7903 31.5429 20.0733C31.9616 20.3501 32.272 20.5619 32.4641 20.6879C32.4726 20.6926 32.4756 20.7019 32.4741 20.7111L31.7911 25.6815Z" fill="#DB305F"/>
<path fill-rule="evenodd" clip-rule="evenodd" d="M11.7991 13.7586C11.7836 13.7586 11.772 13.7456 11.7743 13.7303L12.4206 8.9524C12.5119 8.30917 12.7538 7.75467 13.162 7.29118C13.571 6.82692 14.1307 6.60283 14.8419 6.60283C15.3112 6.60283 15.7805 6.64719 16.2644 6.75197C16.7368 6.85369 17.0932 6.97071 17.3637 7.11527C17.3753 7.12138 17.3892 7.1168 17.3962 7.10456L20.3556 1.54497C20.3618 1.53426 20.3602 1.52202 20.3509 1.51361C19.9675 1.18855 19.216 0.863499 18.1113 0.523912C16.9757 0.179736 15.6289 0 14.0403 0C12.5876 0 11.2858 0.314347 10.1663 0.92851C9.03067 1.55644 8.07746 2.33504 7.29046 3.27885C6.50346 4.22189 5.88345 5.23989 5.42887 6.31754C4.97507 7.41049 4.68749 8.39866 4.56689 9.29734L3.94919 13.7372C3.94765 13.7494 3.93682 13.7586 3.92368 13.7586H3.74819C2.09998 13.7586 0.703014 14.9594 0.473408 16.5748L0.000280639 19.8987C-0.00203861 19.914 0.0103307 19.927 0.0257924 19.927H3.03927C3.05473 19.927 3.06633 19.9408 3.06478 19.9561L1.09033 33.9717C1.08801 33.987 1.09961 34 1.11507 34H6.07208C7.68937 34 9.0585 32.8191 9.27883 31.2336L10.8443 19.9492C10.8459 19.9362 10.8567 19.927 10.8691 19.927H12.5412C14.4855 19.927 16.133 18.5105 16.4043 16.6053L16.8056 13.7869C16.8079 13.7724 16.7955 13.7586 16.7801 13.7586H11.7991Z" fill="#DB305F"/>
<path fill-rule="evenodd" clip-rule="evenodd" d="M84.2736 33.7522C85.3035 33.3878 86.2172 32.9903 87.0155 32.5708C87.8256 32.162 88.4619 31.7644 88.9361 31.3668L89.1677 31.102L93.6523 1.02867C93.6547 1.01358 93.642 1 93.6262 1H89.1788C87.1656 1 85.4655 2.41374 85.1763 4.31332L83.654 14.6682C83.6516 14.6855 83.6326 14.6946 83.6168 14.6863C83.047 14.374 82.421 14.1145 81.7286 13.8753C80.9999 13.655 80.2356 13.5336 79.4381 13.5336C77.6099 13.5336 75.9438 13.8753 74.4515 14.5271C72.9593 15.1789 71.6749 16.0623 70.5874 17.1886C69.5227 18.2931 68.6786 19.5959 68.0771 21.0534C67.4748 22.5328 67.1855 24.0793 67.1855 25.702C67.1855 26.9943 67.3942 28.1976 67.8455 29.3239C68.2968 30.4502 68.9679 31.4332 69.8238 32.2834C70.6917 33.1231 71.7903 33.7854 73.1095 34.2713C74.4286 34.7571 75.9556 35 77.7142 35C78.8358 35 79.9471 34.8785 81.0576 34.6575C82.191 34.4146 83.2556 34.1279 84.2736 33.7522ZM81.7286 27.8883L81.5895 27.9773C81.2773 28.0874 80.8955 28.2202 80.4095 28.3636C79.9352 28.4963 79.3337 28.5733 78.5821 28.5733C77.5633 28.5733 76.765 28.2421 76.1517 27.5797C75.5502 26.9279 75.2617 26.0227 75.2617 24.8518C75.2617 23.2947 75.6893 22.1134 76.5571 21.2745C77.425 20.4348 78.4888 20.0041 79.7503 20.0041C80.3518 20.0041 80.9074 20.1255 81.4512 20.3466C81.9894 20.5766 82.4044 20.8603 82.6929 21.199C82.6976 21.2051 82.7 21.2119 82.6984 21.2194L81.7286 27.8883Z" fill="#DB305F"/>
<path fill-rule="evenodd" clip-rule="evenodd" d="M169.577 15.6853C169.151 14.6226 168.522 13.7395 167.703 13.0573C166.873 12.3529 165.919 11.8388 164.808 11.5141C163.708 11.1673 162.587 11 161.453 11C160.342 11 159.209 11.2124 157.986 11.6371C156.791 12.0497 155.595 12.5722 154.422 13.162C154.412 13.1665 154.402 13.165 154.395 13.1581C153.556 12.4148 152.584 11.8701 151.467 11.5256C150.357 11.1788 149.201 11 148.012 11C147.08 11 146.059 11.1337 144.971 11.3804C143.86 11.615 142.749 11.9618 141.638 12.3751C140.527 12.8006 139.45 13.2811 138.44 13.7953C137.501 14.2964 136.685 14.7983 136.002 15.3438C135.997 15.3476 135.994 15.3537 135.993 15.3598L134.372 26.9618C134.369 26.9771 134.381 26.9908 134.396 26.9908H138.642C140.256 26.9908 141.669 26.0191 142.265 24.5898C142.266 24.5875 142.266 24.5852 142.267 24.5829L143.086 18.8052L143.186 18.7158C143.209 18.7044 143.22 18.6929 143.243 18.6822C143.602 18.4469 144.084 18.2009 144.679 17.9442C145.307 17.6868 145.992 17.5523 146.755 17.5523C147.214 17.5523 147.574 17.6425 147.865 17.8434C148.135 18.0336 148.325 18.2681 148.449 18.5592C148.573 18.8388 148.617 19.152 148.617 19.5095C148.617 19.8556 148.595 20.2024 148.584 20.5485C148.584 20.5493 148.584 20.55 148.584 20.5508L147.26 30.2322C147.258 30.2468 147.27 30.2605 147.285 30.2605H151.565C153.529 30.2605 155.2 28.8182 155.469 26.8724L155.731 24.6425C155.742 24.631 155.742 24.6196 155.742 24.6196L156.449 19.5554C156.449 19.5546 156.449 19.5539 156.449 19.5531L156.494 18.8495L156.584 18.7601C156.629 18.738 156.674 18.7044 156.718 18.6822C157.078 18.4698 157.549 18.2345 158.109 17.9885C158.738 17.6982 159.434 17.5523 160.152 17.5523C160.645 17.5523 161.027 17.6425 161.308 17.8434C161.577 18.0336 161.79 18.2681 161.914 18.5592C162.048 18.8388 162.104 19.152 162.104 19.5095C162.104 19.8556 162.093 20.2024 162.07 20.5485C162.07 20.5493 162.07 20.55 162.07 20.5508L160.459 31.9717C160.457 31.987 160.468 32 160.484 32H164.73C166.705 32 168.365 30.5577 168.634 28.6119L169.185 24.6532C169.195 24.6425 169.195 24.6425 169.195 24.6425L169.902 19.5546C170.105 18.0451 169.992 16.7586 169.577 15.6853Z" fill="#DB305F"/>
<path fill-rule="evenodd" clip-rule="evenodd" d="M110.556 14.1299C109.459 13.2631 107.946 12.8939 106.57 13.0262C105.007 13.1767 103.134 13.9885 102.021 15.0578C101.663 15.3865 101.963 15.6708 101.769 15.9108L102.019 13.844C102.021 13.8287 102.009 13.8157 101.994 13.8157H98.2296C96.0416 13.8157 94.1876 15.4362 93.8856 17.6146L91.617 33.971C91.6147 33.9862 91.6261 34 91.6413 34H95.7822C97.7518 34 99.4255 32.5439 99.6986 30.5849C99.8987 29.1433 100.096 27.7017 100.291 26.2594C100.388 25.5356 100.488 24.8125 100.581 24.0886C100.665 23.4374 100.685 22.7778 100.924 22.1556C101.464 20.7545 103.124 19.7731 104.58 19.8052C105.43 19.8251 106.253 20.1301 106.988 20.5566C107.53 20.8715 108.03 21.2521 108.516 21.6465C108.644 21.7497 109.44 22.206 109.601 22.4231C109.613 22.4407 109.638 22.4315 109.641 22.4101L110.958 14.5189C110.898 14.4288 110.764 14.295 110.556 14.1299Z" fill="#DB305F"/>
<path fill-rule="evenodd" clip-rule="evenodd" d="M140.081 30.7297L140.085 30.7274C137.879 28.8429 134.542 28.5993 132.041 30.3206L130.775 31.1906C130.757 31.2034 130.731 31.1876 130.735 31.1666L133.218 16.7803C133.499 15.1537 132.51 13.4949 130.848 13.094C128.997 12.6481 127.226 13.8378 126.92 15.6094L125.602 23.2466C125.6 23.2587 125.588 23.2677 125.575 23.2669C122.987 23.1248 120.8 23.2241 118.985 23.5083C118.967 23.5113 118.953 23.497 118.957 23.4805L120.062 17.0743C120.341 15.4613 119.377 13.8099 117.736 13.3918C115.876 12.9173 114.022 14.1025 113.714 15.8884L111.106 31.0011C110.163 36.4658 113.822 41.8282 119.481 42.8321C122.306 43.333 125.06 42.6862 127.252 41.2507L127.251 41.2642L127.458 41.1221C127.461 41.1199 127.465 41.1176 127.466 41.1161L139.986 32.4961C140.515 32.1336 140.637 31.4275 140.26 30.9192C140.207 30.8477 140.147 30.783 140.081 30.7297Z" fill="#DB305F"/>
</svg>
